<?xml version="1.0" encoding="utf-8"?>
<!-- Generator: Adobe Illustrator 23.0.5, SVG Export Plug-In . SVG Version: 6.00 Build 0)  -->
<svg version="1.1" id="Layer_1" xmlns="http://www.w3.org/2000/svg" xmlns:xlink="http://www.w3.org/1999/xlink" x="0px" y="0px"
	 viewBox="0 0 845.1 341.9" enable-background="new 0 0 845.1 341.9" xml:space="preserve">
<g>
	<text transform="matrix(1 0 0 1 52.999 292.0065)" font-family="'PointedlyMadSmallCaps'" font-size="331.9925px">MEAT</text>
	<g>
		<path fill="#939598" d="M249.4,332c-11.8,0-22.3-1.4-31.5-4.2c-9.1,2.8-19.6,4.2-31.3,4.2h-11.9c-6.7,0-13-1.6-18.5-4.5
			c-5.5,2.9-11.8,4.5-18.5,4.5H131c-11.2,0-21.2-1.3-30.1-3.8c-8.5,2.6-18.8,3.8-32.7,3.8h-6.9c-22.1,0-40-17.9-40-40v-23.2
			c0-15.7,9-29.2,22.1-35.8v-31.6l-3.2-3.8c-12.4-14.8-12.4-36.4,0-51.2l3.2-3.8v-18.3c-13.1-6.6-22.1-20.1-22.1-35.8V65.1
			c0-22.1,17.9-40,40-40h6.9c13.2,0,23.1,1.1,31.4,3.4c8.3-2.4,18.2-3.4,31.4-3.4h6.6c6.7,0,13,1.6,18.5,4.5
			c5.5-2.9,11.8-4.5,18.5-4.5h11.9c11.7,0,22.2,1.4,31.3,4.2c9.2-2.8,19.7-4.2,31.5-4.2h11.9c22.1,0,40,17.9,40,40v23.2
			c0,15.8-9.1,29.4-22.4,35.9v18.2l3.2,3.8c12.4,14.8,12.4,36.4,0,51.2l-3.2,3.8v31.5c13.3,6.5,22.4,20.2,22.4,35.9V292
			c0,22.1-17.9,40-40,40H249.4z"/>
		<path fill="#939598" d="M352.9,334.2c-13.3,0-24.2-2.3-33.3-5.9c-8.8,2.5-18.7,3.7-29.7,3.7h-11.9c-22.1,0-40-17.9-40-40v-23.2
			c0-15.7,9-29.2,22.1-35.8v-31.4l-3.1-3.8c-12.2-14.8-12.1-36.2,0.2-51l2.9-3.5v-19.1c-13.1-6.6-22.1-20.2-22.1-35.8V65.1
			c0-22.1,17.9-40,40-40h11.9c12.3,0,22.2,1.1,30.7,3.4c9.2-3.4,20.4-5.6,34.1-5.6c20.7,0,41.3,6.7,61.2,20
			c16.4,10.9,35.9,32.5,36.3,73.6c0,0.1,0,0.3,0,0.4c0,17.5-7.2,33.8-20.3,46c-2.7,2.5-5.6,4.8-8.5,6.8l-1.8,14.1
			c6.7,4,12.7,9.3,17.9,15.7c0.1,0.1,0.2,0.3,0.3,0.4c12.5,15.9,14.7,31.3,14.3,41.4c-0.7,18.2-7.7,44.7-36.9,68.6
			c0,0-0.1,0.1-0.1,0.1C396.9,326,375.4,334.2,352.9,334.2z"/>
		<path fill="#939598" d="M588.1,332c-6.1,0-18.9,0-32.4-3.9c-8.5,2.6-18.1,3.9-28.7,3.9h-10.2c-2.8,0-5.5-0.3-8.2-0.8
			c-2.6,0.5-5.4,0.8-8.2,0.8h-11.9c-7.9,0-14.9-1-20.9-2.7c-7.2,1.8-15.5,2.7-25.3,2.7h-12.2c-22.1,0-40-17.9-40-40v-23.2
			c0-18.4,12.5-34,29.5-38.6l8.6-36.6c-10-15.6-7.9-36.1,5.1-49.5l8.5-8.8l4.7-19.9c-6.5-7.1-10.4-16.6-10.4-27V65.1
			c0-22.1,17.9-40,40-40h14.7c12.2,0,23.1,1.5,32.7,4.6c9.4-3.1,20.1-4.6,32-4.6h11.3c22.1,0,40,17.9,40,40v23.2
			c0,11.7-5,22.2-13.1,29.6l3.4,20l6.1,6.4c12.8,13.5,14.6,34.1,4.3,49.7l-0.6,0.9l6.6,38.4c12.7,6.7,21.4,20,21.4,35.4V292
			c0,22.1-17.9,40-40,40H588.1z"/>
		<path fill="#939598" d="M733.9,332c-11.8,0-22.3-1.4-31.5-4.2c-9.1,2.8-19.6,4.2-31.3,4.2h-11.9c-22.1,0-40-17.9-40-40v-23.2
			c0-15.6,9-29.2,22.1-35.8v-18.7l-2.9-3.6c-6.3-7.6-9.4-17-9.2-26.3c-14.8-1.6-28.1-8.2-38.9-19.2c-12.7-12.9-19.1-29.1-18.6-46.9
			c0-0.2,0-0.4,0-0.6c1-23,11.6-45.3,31.7-66.5c1.1-1.2,2.3-2.3,3.6-3.3c20-16.5,41.6-24.9,64.2-24.9c12.3,0,22.6,2,31.3,5.1
			c8.6-3.1,19-5.1,31.3-5.1c22.6,0,44.2,8.4,64.2,24.9c1.3,1,2.4,2.1,3.6,3.3c20,21.2,30.7,43.5,31.7,66.5c0,0.2,0,0.4,0,0.6
			c0.5,17.8-6,34-18.6,46.9c-10.7,10.9-24,17.5-38.6,19.1c0.2,9.3-2.9,18.7-9.2,26.4l-2.9,3.6V233c13.1,6.6,22.1,20.2,22.1,35.8V292
			c0,22.1-17.9,40-40,40H733.9z M763.7,252.8L763.7,252.8z"/>
	</g>
	
		<text transform="matrix(1 0 0 1 52.999 292.0065)" fill="none" stroke="#231F20" stroke-width="25" font-family="'PointedlyMadSmallCaps'" font-size="331.9925px">MEAT</text>
	
		<text transform="matrix(1 0 0 1 52.999 292.0065)" fill="none" stroke="#231F20" stroke-width="14" font-family="'PointedlyMadSmallCaps'" font-size="331.9925px">MEAT</text>
	
		<text transform="matrix(1 0 0 1 52.999 292.0065)" fill="none" stroke="#231F20" stroke-width="14" font-family="'PointedlyMadSmallCaps'" font-size="331.9925px">MEAT</text>
	<text transform="matrix(1 0 0 1 52.999 292.0065)" fill="#FFFFFF" font-family="'PointedlyMadSmallCaps'" font-size="331.9925px">MEAT</text>
</g>
</svg>
